<?xml version="1.0" encoding="UTF-8" standalone="no"?>
<!-- Created with Inkscape (http://www.inkscape.org/) -->

<svg
   width="400mm"
   height="50mm"
   viewBox="0 0 400 50"
   version="1.1"
   id="svg1"
   inkscape:version="1.3 (0e150ed6c4, 2023-07-21)"
   sodipodi:docname="GameBoyAdvance_text_JP.svg"
   inkscape:export-filename="GameBoyAdvance_JP_text_zlnt.svg"
   inkscape:export-xdpi="96"
   inkscape:export-ydpi="96"
   xmlns:inkscape="http://www.inkscape.org/namespaces/inkscape"
   xmlns:sodipodi="http://sodipodi.sourceforge.net/DTD/sodipodi-0.dtd"
   xmlns="http://www.w3.org/2000/svg"
   xmlns:svg="http://www.w3.org/2000/svg">
  <sodipodi:namedview
     id="namedview1"
     pagecolor="#ffffff"
     bordercolor="#000000"
     borderopacity="0.25"
     inkscape:showpageshadow="2"
     inkscape:pageopacity="0.0"
     inkscape:pagecheckerboard="0"
     inkscape:deskcolor="#d1d1d1"
     inkscape:document-units="mm"
     inkscape:zoom="0.74742565"
     inkscape:cx="680.33523"
     inkscape:cy="105.02717"
     inkscape:window-width="1920"
     inkscape:window-height="1017"
     inkscape:window-x="-8"
     inkscape:window-y="-8"
     inkscape:window-maximized="1"
     inkscape:current-layer="g1" />
  <defs
     id="defs1" />
  <g
     inkscape:label="Layer 1"
     inkscape:groupmode="layer"
     id="layer1">
    <g
       id="g1"
       transform="matrix(0.96579824,0,0,0.96579824,-25.891986,15.037335)">
      <path
         style="fill:#000000;stroke-width:0.107586"
         d="m 64.231802,12.267707 h 4.511879 c 0,0 0.679363,0.01476 0.843875,-0.270198 l 2.397158,-5.1971052 h 7.119216 c 1.572679,0 1.327644,1.2331765 0.889165,2.8696061 -2.426346,9.4868491 -1.360226,10.9013921 -4.847742,10.9013921 h -6.052016 -0.968265 c -0.330687,0 -0.61412,-0.0012 -0.859404,0.0028 -1.446382,-0.01074 -1.289002,0.294432 -1.290767,1.614179 l -0.0028,2.881642 c 0,0.428159 0.119499,0.779604 0.606333,0.779604 h 10.570315 c 5.43309,-0.161381 6.562744,-5.17085 6.562744,-5.17085 L 85.970751,6.8002411 h 7.487747 c 0,0 0.40158,-0.00244 0.40158,-0.4012036 l 0.009,-3.2948738 c 0,-0.8482541 -0.588436,-1.5756311 -1.785628,-1.5756311 h -0.893163 -17.10135 l 2.456159,-4.9916952 c 0.255079,-0.5183967 -0.228978,-0.9801629 -0.64726,-0.9801629 H 71.62802 c -0.360736,0 -0.568529,0.1563794 -0.753889,0.4853138 L 63.737189,11.555724 c -0.154656,0.316032 -0.09736,0.711983 0.494613,0.711983 z"
         id="path642195"
         sodipodi:nodetypes="cccccccccscccccccccccccccccc" />
      <g
         id="g642217"
         transform="matrix(0.40662394,0,0,0.40662394,455.63617,-243.01409)"
         style="fill:#000000">
        <path
           style="fill:#000000;stroke-width:0.266107"
           d="m -902.89098,587.05795 v 15.03461 c 0.1932,2.14195 8.6864,2.10759 8.87959,0 v -15.03248 c -0.19319,-1.80978 -8.68639,-1.72011 -8.87959,-0.002 z"
           id="path642202"
           sodipodi:nodetypes="cccccc" />
        <path
           style="fill:#000000;stroke-width:0.266107"
           d="m -890.97142,587.20949 0.49808,15.02636 c 0.26406,2.13437 8.75146,1.81865 8.87472,-0.29417 l -0.49802,-15.02424 c -0.25304,-1.80238 -8.73861,-1.43139 -8.87478,0.29218 z"
           id="path642203"
           sodipodi:nodetypes="cccccc" />
      </g>
      <path
         style="fill:#000000;stroke-width:0.103241"
         d="m 95.063818,13.592955 h 19.194992 c 1.26533,0 1.36243,-5.2717086 0.0248,-5.2717086 H 95.063818 c -1.41176,0 -1.41176,5.2717086 0,5.2717086 z"
         id="path642204"
         sodipodi:nodetypes="cccccc" />
      <path
         style="display:inline;fill:#000000;stroke-width:0.103241"
         d="m 181.59396,13.596387 h 19.19499 c 1.26534,0 1.36244,-5.2717087 0.0248,-5.2717087 h -19.21976 c -1.41176,0 -1.41177,5.2717087 0,5.2717087 z"
         id="path642205"
         sodipodi:nodetypes="cccccc" />
      <path
         style="display:inline;fill:#000000;stroke-width:0.103241"
         d="m 160.57453,9.946933 -0.0623,13.072663 c -0.41017,4.121886 2.81931,2.830163 4.07,2.473782 1.01647,-0.313698 1.23477,-1.464241 1.23477,-2.218219 V 7.8897127 c 0,-1.0720559 0.55834,-1.094099 2.38652,-1.0907321 0.44052,8.132e-4 4.01438,0.00203 4.50863,0.00203 h 4.79747 c 0.81668,0 0.9073,-0.2695957 0.9073,-1.3167662 0,-0.063177 0.006,-1.6461439 0.008,-1.7097642 0.0353,-1.3971477 -1.10511,-2.2451782 -2.51055,-2.2451782 l -0.2975,-4e-6 -8.22913,-4.88e-5 c -1.21779,0 -1.60978,0.00785 -1.60978,-1.36218207 l 0.004,-3.82396063 c 0,-0.4019356 0.0418,-0.7858658 -0.6611,-0.7858658 l -4.34601,-2.847e-4 c -0.0908,0 -0.27577,0.04799 -0.27577,0.254079 l -0.009,3.99161169 c -0.0648,1.60722581 -0.29926,1.68207721 -1.60482,1.72664311 h -9.78277 c -1.41177,0 -0.87845,5.2717086 0.53332,5.2717086 0.16166,0 9.35585,3.009e-4 9.53369,8.132e-4 1.33323,0 1.40502,1.2083156 1.40502,1.2083156 z"
         id="path642205-3"
         sodipodi:nodetypes="cccccsccssccccccccccccccc" />
      <path
         style="display:inline;fill:#000000;stroke-width:0.103241"
         d="m 116.23698,25.195473 h 27.16714 c 1.26535,0 0.008,-4.275781 -0.56724,-5.271709 -1.37907,-3.307552 -2.68492,-6.645902 -4.01777,-9.9724151 0,0 -0.27333,-0.7271656 -1.13444,-0.7271656 l -3.71569,0.0063 c -1.23015,0 -1.19165,0.4648891 -0.7455,1.5603987 l 0.437,1.07315 1.33943,3.289291 1.54069,3.54561 c 0.53879,1.438282 -0.4952,1.186402 -1.90419,1.20185 -0.2306,0 -0.70902,-2.4e-5 -0.9243,-6.9e-5 -3.0587,-8.13e-4 -4.52723,-0.0056 -4.79278,-0.0056 -0.67416,0 -2.11532,0.01374 -2.65312,0.01321 -1.0456,-8.13e-4 -1.9381,-0.166285 -1.38472,-1.575957 l 1.31572,-3.008273 8.07384,-18.2415436 c 0.34917,-0.6047921 0.14722,-0.7151702 -0.35559,-0.7201635 -0.37137,-0.00366 -1.91619,-0.00285 -2.47889,-0.00285 -2.74034,0 -2.91536,-0.1049984 -3.27672,0.7223146 l -8.63006,19.4532145 c -1.11534,3.206515 -4.48637,8.660667 -1.89418,8.660667 z"
         id="path642206"
         sodipodi:nodetypes="cccccccccccssscccsccccc" />
      <path
         style="display:inline;fill:#000000;fill-opacity:1;stroke-width:0.125538"
         d="m 147.89842,23.935866 4.72256,-13.494495 c 0.42862,-1.2445535 1.37382,-1.3087594 3.58082,-1.3087594 1.88275,0 2.49322,0.2294945 2.06108,1.4843684 l -4.51927,13.52911 c -0.3694,1.072703 -2.00668,1.027511 -3.78206,1.027511 -1.6194,0 -2.37341,-0.336746 -2.06313,-1.237731 z"
         id="path642213-6"
         sodipodi:nodetypes="cccccccc" />
      <path
         style="display:inline;fill:#000000;fill-opacity:1;stroke-width:0.125538"
         d="m 177.97653,23.973901 -4.29218,-13.494494 c -0.42862,-1.2445539 -1.37382,-1.3087598 -3.58081,-1.3087598 -1.88275,0 -2.49322,0.2294945 -2.06108,1.4843688 l 4.08892,13.52911 c 0.3694,1.072702 2.00666,1.02751 3.78204,1.02751 1.61938,0 2.37338,-0.336745 2.06311,-1.237731 z"
         id="path642214"
         sodipodi:nodetypes="cccccccc" />
      <path
         style="display:inline;fill:#000000;stroke-width:0.103241"
         d="m 218.23654,11.626802 c 0,0 -0.096,6.799167 -0.096,10.585592 -0.0712,1.06799 -0.13521,1.314193 -0.18606,1.771905 -0.3288,2.311384 0.75823,2.306452 4.48076,2.179748 1.03115,0 1.04778,-1.658432 1.04778,-2.41241 V 7.8897127 l -0.039,-1.913003 0.005,-0.5783372 c 0,-1.3802117 0.15018,-1.4526884 0.63516,-1.8711003 2.44084,-2.0309727 5.95576,-4.36977598 8.67504,-6.4649262 0.72479,-0.558441 0.0941,-1.5046143 -0.46326,-1.5046143 l -4.48904,-0.00163 c -0.76252,0 -1.50895,0.2030599 -2.06988,0.5377276 -2.41345,1.8330851 -7.2438,5.9600009 -7.2438,5.9600009 l -12.652,10.4218498 c -1.54624,1.546252 -0.95348,2.700088 0.60892,2.689459 1.4242,-0.0097 2.20014,-0.01903 3.50988,-0.0235 1.05164,0.05454 1.05363,0.04289 1.83081,-0.614433 l 4.91182,-4.154372 c 0.67241,-0.5648246 1.53817,-0.299938 1.53817,-0.02419 8.2e-4,0.426078 0.002,0.852118 -0.004,1.278158 z"
         id="path642217"
         sodipodi:nodetypes="cccccccccccccccssccccc" />
      <g
         id="g642219"
         transform="matrix(0.40662394,0,0,0.40662394,539.8509,-243.01409)"
         style="fill:#000000">
        <path
           style="fill:#000000;stroke-width:0.266107"
           d="m -902.89098,587.05795 v 15.03461 c 0.1932,2.14195 8.6864,2.10759 8.87959,0 v -15.03248 c -0.19319,-1.80978 -8.68639,-1.72011 -8.87959,-0.002 z"
           id="path642218"
           sodipodi:nodetypes="cccccc" />
        <path
           style="fill:#000000;stroke-width:0.266107"
           d="m -890.97142,587.20949 0.49808,15.02636 c 0.26406,2.13437 8.75146,1.81865 8.87472,-0.29417 l -0.49802,-15.02424 c -0.25304,-1.80238 -8.73861,-1.43139 -8.87478,0.29218 z"
           id="path642219"
           sodipodi:nodetypes="cccccc" />
      </g>
      <path
         style="display:inline;fill:#000000;stroke-width:0.103241"
         d="m 255.88876,9.946933 -0.0411,8.62586 c 0,1.923099 -0.64655,2.095451 -2.67759,2.095451 l -4.47115,7.3e-5 c -1.54748,0 -2.10702,0.13887 -2.10702,0.972661 l -1.8e-4,3.227134 c 0,0.793559 0.70665,1.081933 1.32551,1.081933 0.26054,0 9.72336,-6.9e-5 9.72336,-6.9e-5 0,0 1.71991,-0.303878 2.25586,-0.456598 1.01648,-0.313698 1.23478,-1.464241 1.23478,-2.218219 v -7.066067 c 0,-1.500023 0.47206,-1.237068 8.34419,-1.237068 4.38648,0 4.48086,-2.032083 4.48086,-8.583022 0,-2.2841897 -8.2e-4,-7.24892148 -8.2e-4,-7.24892148 l -5.32166,3.20352968 0.0332,5.5675275 c 0,0 0.005,1.9070256 -0.96559,1.9070256 l -6.57009,0.018013 V 9.0018779 2.6180082 c 0,-1.0720559 0.55834,-1.094099 2.38651,-1.0907321 0.44052,8.132e-4 3.419,0.00203 3.91325,0.00203 0.63841,0 1.20336,0.541497 1.20336,0.8761119 l 4.25674,-0.8761119 c 1.26533,0 1.83874,-5.164124 -0.80171,-5.164124 l -0.2975,-4.1e-6 -9.08982,-4.88e-5 -8.50252,4.07e-5 h -9.78272 c -1.41176,0 -0.87845,5.164124 0.53332,5.164124 0.16166,0 9.3558,3.009e-4 9.53364,8.132e-4 1.33324,0 1.40502,1.2083156 1.40502,1.2083156 z"
         id="path642221"
         sodipodi:nodetypes="ccccccccccccccccccccscccccccccccc" />
      <g
         id="g642223"
         transform="matrix(0.40662394,0,0,0.40662394,661.42305,-243.01409)"
         style="fill:#000000">
        <path
           style="fill:#000000;stroke-width:0.266107"
           d="m -902.89098,587.05795 v 15.03461 c 0.1932,2.14195 8.6864,2.10759 8.87959,0 v -15.03248 c -0.19319,-1.80978 -8.68639,-1.72011 -8.87959,-0.002 z"
           id="path642222"
           sodipodi:nodetypes="cccccc" />
        <path
           style="fill:#000000;stroke-width:0.266107"
           d="m -890.97142,587.20949 0.49808,15.02636 c 0.26406,2.13437 8.75146,1.81865 8.87472,-0.29417 l -0.49802,-15.02424 c -0.25304,-1.80238 -8.73861,-1.43139 -8.87478,0.29218 z"
           id="path642223"
           sodipodi:nodetypes="cccccc" />
      </g>
      <path
         id="path26689-8"
         class="fil0"
         d="m 404.5207,16.052924 c -2.35709,0 -4.29382,2.021812 -4.29382,4.519715 0,2.543469 1.93673,4.533893 4.32016,4.533893 2.36114,0.03343 4.27661,-1.990424 4.27661,-4.511602 0,-2.517149 -1.91546,-4.53896 -4.27661,-4.53896 l -0.0263,8.13e-4 v -0.0044 z m 0.0304,-0.835673 c 2.90611,0 5.25005,2.375338 5.25005,5.352342 0,3.029698 -2.34191,5.376662 -5.27333,5.376662 -2.93447,0 -5.31285,-2.344947 -5.31285,-5.376662 0,-2.977004 2.37433,-5.352342 5.31285,-5.352342 h 0.0234 z"
         style="clip-rule:evenodd;display:inline;fill:#000000;fill-rule:evenodd;stroke-width:0.857627;image-rendering:optimizeQuality;shape-rendering:geometricPrecision;text-rendering:geometricPrecision"
         sodipodi:nodetypes="cscscccccsssscc" />
      <path
         d="m 402.35518,20.610491 v -3.1627 l 1.44558,0.01956 c 1.31581,0.01826 1.47392,0.0294 1.76138,0.124029 0.86517,0.285429 1.26842,0.84644 1.2703,1.767244 8.1e-4,0.78269 -0.34649,1.361271 -0.99275,1.649982 -0.0916,0.04095 -0.12642,0.08497 -0.10659,0.135703 0.0152,0.04139 0.33372,0.639896 0.70644,1.330152 0.37264,0.69024 0.6776,1.264759 0.6776,1.276706 0,0.01171 -0.26785,0.02131 -0.59523,0.02054 l -0.59524,-8.14e-4 -0.62982,-1.213427 -0.62981,-1.213406 h -0.62138 -0.6214 v 1.214765 1.214764 h -0.53449 -0.53451 z m 2.84257,-0.272235 c 0.36119,-0.190857 0.55901,-0.509731 0.55854,-0.900196 -4.1e-4,-0.458607 -0.18176,-0.778213 -0.55252,-0.974348 -0.1815,-0.096 -0.27395,-0.106153 -0.97783,-0.107247 l -0.77747,-8.13e-4 -0.0126,0.994777 c -0.008,0.547153 -8.2e-4,1.025001 0.0126,1.061943 0.0203,0.05439 0.17186,0.06356 0.79064,0.04806 0.66195,-0.01594 0.79108,-0.03306 0.95925,-0.121845 z"
         style="clip-rule:evenodd;display:inline;fill:#000000;fill-rule:evenodd;stroke-width:0.0786024;image-rendering:optimizeQuality;shape-rendering:geometricPrecision;text-rendering:geometricPrecision"
         id="path1-9-3"
         inkscape:label="rights reserved final" />
      <g
         id="g642225"
         transform="matrix(0.40662394,0,0,0.40662394,696.49616,-243.01409)"
         style="fill:#000000">
        <path
           style="fill:#000000;stroke-width:0.266107"
           d="m -902.89098,587.05795 v 15.03461 c 0.1932,2.14195 8.6864,2.10759 8.87959,0 v -15.03248 c -0.19319,-1.80978 -8.68639,-1.72011 -8.87959,-0.002 z"
           id="path642224"
           sodipodi:nodetypes="cccccc" />
        <path
           style="fill:#000000;stroke-width:0.266107"
           d="m -890.97142,587.20949 0.49808,15.02636 c 0.26406,2.13437 8.75146,1.81865 8.87472,-0.29417 l -0.49802,-15.02424 c -0.25304,-1.80238 -8.73861,-1.43139 -8.87478,0.29218 z"
           id="path642225"
           sodipodi:nodetypes="cccccc" />
      </g>
      <path
         style="display:inline;fill:#000000;stroke-width:0.103241"
         d="m 279.47192,6.9345287 -0.0411,11.6382643 c 0,1.923099 -0.64655,2.095451 -2.67759,2.095451 l -4.47115,7.3e-5 c -1.54749,0 -2.10702,0.13887 -2.10702,0.972661 l -1.8e-4,3.227134 c 0,0.793559 0.70665,1.081933 1.32551,1.081933 0.26054,0 9.72336,-6.9e-5 9.72336,-6.9e-5 0,0 1.71991,-0.303878 2.25586,-0.456598 1.01648,-0.313698 1.23478,-1.464241 1.23478,-2.218219 V 13.196688 c 0,-1.020199 0.21835,-1.138141 2.83464,-1.164681 0.989,-0.01004 9.33318,0.0054 13.53996,0.01179 0.73293,0 1.49263,-0.09141 1.49263,-1.120436 l 2e-5,-3.1380835 c 0,-0.8277481 -0.54692,-0.9779021 -1.16732,-0.9779021 l -3.86148,0.00777 -11.30528,0.00866 c -0.84735,0 -1.5331,-0.1329254 -1.5331,-0.8342988 V 3.6266511 -2.3932333 c 0,-0.7996911 -0.59307,-1.2415693 -1.30705,-1.2415693 l -2.05842,-8.1e-6 c -1.04607,0 -1.87697,0.1185146 -1.87697,1.3458073 l -2e-5,4.6084968 z"
         id="path642226"
         sodipodi:nodetypes="cccccccccccscccccccccccccc" />
      <path
         style="display:inline;fill:#000000;stroke-width:0.103241"
         d="m 308.08398,9.2981035 -2.09402,8.3679265 -1.77549,6.598973 c -0.3336,1.24503 -0.36072,1.682976 0.33847,1.682976 0,0 3.01431,0.0028 3.50618,0.0028 1.06352,-0.02314 1.54793,-1.051473 1.72748,-1.783762 l 1.8978,-7.538572 1.51765,-6.189572 0.19867,-0.8103004 1.52019,-6.2002262 1.55562,-5.9533038 c 0,-0.6062519 -0.12047,-1.1090424 -1.13585,-1.1090424 l -2.82151,-0.00752 c -1.36296,0 -1.6273,1.5394498 -1.6273,1.5394498 l -1.09126,4.3989716 z"
         id="path642227"
         sodipodi:nodetypes="cccccccccccccccc" />
      <path
         style="display:inline;fill:#000000;stroke-width:0.103241"
         d="m 330.09871,9.2264116 2.23767,8.3306594 1.88876,6.567452 c 0.35498,1.239105 0.18043,1.814364 -0.51867,1.826396 0,0 -2.88068,-0.0075 -3.37248,8.13e-4 -1.06376,-0.0048 -1.48971,-1.100332 -1.68183,-1.829425 l -2.02722,-7.504806 -1.62392,-6.162548 -0.21258,-0.8067585 -1.62663,-6.1731532 -1.6578,-5.9828165 c -0.0104,-0.6061625 0.10136,-1.1109495 1.11659,-1.1284221 l 2.82097,0.00122 c 1.36275,-0.023462 1.65354,1.511226 1.65354,1.511226 l 1.16678,4.3795432 z"
         id="path642228"
         sodipodi:nodetypes="cccccccccccccccc" />
      <path
         style="display:inline;fill:#000000;stroke-width:0.103241"
         d="m 352.78134,0.50114026 -0.006,-3.43291446 c 0,-0.5838754 -0.38219,-0.7030894 -1.1525,-0.7030894 l -7.35121,3.66e-5 h -4.18825 c -1.41177,0 -0.87845,5.164124 0.53331,5.164124 0.16166,0 3.76134,3.009e-4 3.93918,8.133e-4 l 6.6771,-0.00244 c 0.70683,0 1.54822,-0.046469 1.54822,-1.02666855 z"
         id="path642229"
         sodipodi:nodetypes="ccccccccc" />
      <path
         style="display:inline;fill:#000000;stroke-width:0.103241"
         d="m 361.84452,5.4283245 -5.82803,13.1444685 c -0.72271,1.770949 -1.83949,2.095451 -2.95764,2.095451 l -5.18254,8e-6 -6.51691,6.5e-5 c -1.54749,0 -2.10702,0.262492 -2.10702,1.096283 l -1.8e-4,3.227134 c 0,0.793559 0.70665,0.958311 1.32551,0.958311 0.26054,0 14.66942,-6.9e-5 14.66942,-6.9e-5 2.40118,0 3.5457,-0.456029 4.27184,-1.825945 l 0.79212,-1.790922 7.2219,-16.0472675 c 0.46569,-0.9399844 -0.0902,-1.6048024 -0.87053,-1.6048024 l -3.38913,0.071009 c -0.67723,0 -1.07529,0.063954 -1.42881,0.6762764 z"
         id="path642230"
         sodipodi:nodetypes="ccccccccccccccc" />
      <path
         style="display:inline;fill:#000000;stroke-width:0.10271"
         d="m 379.65525,9.4534623 -4.84412,7.0836777 -4.58143,6.404018 c -0.0255,0.03599 -1.04654,1.555227 -1.07084,1.593787 -0.64502,1.023127 -0.36232,1.415555 0.0541,1.415555 l 4.02139,-6.1e-5 c 1.57881,0 1.45546,-0.03481 2.22783,-1.175907 l 5.0201,-7.238374 c 0.46159,-0.680648 0.88122,-1.129894 1.16292,-1.536063 1.16011,-1.672688 1.80131,-0.891884 3.74396,1.649475 l 3.39384,4.123073 2.39564,2.922715 c 0.98897,1.183914 1.87642,1.249137 2.83704,1.249137 l 3.12742,-4.07e-4 c 0.66572,0 0.99589,0.176243 0.99589,-0.751787 0,-0.447042 -0.20543,-0.679468 -1.02383,-1.650019 L 387.03147,11.406245 c -1.00134,-1.293389 -1.18317,-1.4968231 -0.002,-3.5427718 l 1.03183,-1.5244168 5.44429,-7.5989556 c 0.20941,-0.5656099 0.2707,-2.0224906 -0.67662,-2.373224 l -2.62978,-8.133e-4 -19.12874,-0.00325 c -1.43997,0 -1.50999,0.5299245 -1.50999,0.9604783 l 0.009,3.35905528 c 0,0.64783322 0.16186,0.84570462 1.05199,0.84570462 l 11.92624,-3.335e-4 c 1.2968,0 1.67896,1.0539408 1.24706,1.8020028 -0.21293,0.3687957 -0.68147,1.0753211 -0.68147,1.0753211 z"
         id="path642231"
         sodipodi:nodetypes="cccsccccsccccccccccccccccccscc" />
    </g>
  </g>
</svg>
