<svg height="25" viewBox="0 0 269 25" width="269" xmlns="http://www.w3.org/2000/svg" xmlns:xlink="http://www.w3.org/1999/xlink"><mask id="a" fill="#fff"><path d="m.30933333.28898438h13.24444447v17.67968752h-13.24444447z" fill="#fff" fill-rule="evenodd"/></mask><g fill="#231916" fill-rule="evenodd"><path d="m0 3v3.36097653h3.89462015v13.63902347h4.2107597v-13.63902347h3.89462015v-3.36097653z"/><g transform="translate(13)"><path d="m.68519506 1.87148438h4.00750617v7.28046875h.04503704c.86834568-1.284375 2.13649383-2.1171875 3.87239506-2.1171875 3.16128397 0 4.43101237 2.3796875 4.43101237 4.94921877v7.7335937h-4.00750619v-5.9960937c0-2.33125-.75693828-3.1171875-1.84651852-3.1171875-1.64740741 0-2.49441976 1.2132812-2.49441976 3.8789062v5.234375h-4.00750617z"/><path d="m26.7083062 14.7682031v-.7851562c0-3.6882813-1.5581235-6.94765627-5.8540247-6.94765627-3.6069136 0-6.2119506 2.37890625-6.2119506 6.47187497 0 4.0929688 2.9171358 6.4960938 6.746074 6.4960938 1.490963 0 2.9605926-.2382813 4.2516544-.7851563v-3.021875c-1.2017778.6898438-2.4485926.9523438-3.5397531.9523438-1.9587161 0-3.1834074-.6671875-3.4062222-2.3804688zm-8.057679-2.4265625c.0884938-1.428125.7782716-2.59453122 2.2257777-2.59453122 1.6023704 0 2.2257778 1.16640622 2.2257778 2.59453122z"/><path d="m35.6890864 19.7174219h4.4768395v-5.8054688h1.7319506c4.1876544 0 6.6670618-1.9992187 6.6670618-5.35390622 0-3.7359375-2.4075062-5.44921875-7.5330371-5.44921875h-5.3428148zm4.4768395-13.46718752h1.1551605c1.5399506 0 2.7670124.546875 2.7670124 2.2359375 0 1.73750002-1.2270618 2.28437502-2.7670124 2.28437502h-1.1551605z"/><path d="m56.0231506 20.0035156c3.8289383 0 6.745284-2.3796875 6.745284-6.4726562 0-4.11640627-2.9163457-6.49609378-6.745284-6.49609378s-6.7452839 2.37968751-6.7452839 6.49609378c0 4.0929687 2.9163456 6.4726562 6.7452839 6.4726562m0-2.9984375c-1.8473086 0-2.6042469-1.6414062-2.6042469-3.4742187 0-1.8554688.7569383-3.4984375 2.6042469-3.4984375 1.8488889 0 2.6050371 1.6429687 2.6050371 3.4984375 0 1.8328125-.7561482 3.4742187-2.6050371 3.4742187"/><path d="m64.7052642 1.87148438h4.006716v10.66015622h.0450371l3.3390617-5.21093747h4.3843951l-4.0280494 5.68671877 4.3622716 6.7101562h-4.8521482l-3.2055308-6.1390625h-.0450371v6.1390625h-4.006716z"/><path d="m89.1474173 14.7682031v-.7851562c0-3.6882813-1.5581235-6.94765627-5.8540247-6.94765627-3.6069136 0-6.2119506 2.37890625-6.2119506 6.47187497 0 4.0929688 2.9171358 6.4960938 6.746074 6.4960938 1.490963 0 2.9598025-.2382813 4.2508642-.7851563v-3.021875c-1.2017777.6898438-2.4485925.9523438-3.5389629.9523438-1.9587161 0-3.1834074-.6671875-3.4062222-2.3804688zm-8.057679-2.4265625c.0884938-1.428125.7782716-2.59453122 2.2249876-2.59453122 1.6031605 0 2.2265679 1.16640622 2.2265679 2.59453122z"/><path d="m91.1790617 7.32039063h3.4733827v2.284375h.0418766c.7624691-1.784375 2.2874074-2.56953125 4.0233086-2.56953125 1.5676054 0 2.8594564.7609375 3.4528394 2.3796875.888889-1.66640625 2.350617-2.3796875 3.916642-2.3796875 3.178667 0 3.897679 2.02265625 3.897679 5.37812502v7.3039062h-3.811555v-6.6625c0-1.403125-.44484-2.4507812-1.525729-2.4507812-1.354271 0-2.159407 1.2140625-2.159407 3.8789062v5.234375h-3.8123459v-6.6625c0-1.403125-.4448395-2.4507812-1.5241482-2.4507812-1.3558518 0-2.1609876 1.2140625-2.1609876 3.8789062v5.234375h-3.8115556z"/><path d="m118.605748 20.0035156c3.828938 0 6.744494-2.3796875 6.744494-6.4726562 0-4.11640627-2.915556-6.49609378-6.744494-6.49609378s-6.745284 2.37968751-6.745284 6.49609378c0 4.0929687 2.916346 6.4726562 6.745284 6.4726562m0-2.9984375c-1.848099 0-2.604247-1.6414062-2.604247-3.4742187 0-1.8554688.756148-3.4984375 2.604247-3.4984375s2.605037 1.6429687 2.605037 3.4984375c0 1.8328125-.756938 3.4742187-2.605037 3.4742187"/><path d="m127.175901 7.32039063h3.650371v2.284375h.045827c.800395-1.784375 2.404345-2.56953125 4.22795-2.56953125 3.161284 0 4.431013 2.3796875 4.431013 4.94921872v7.7328125h-4.006716v-5.9960937c0-2.33125-.757729-3.1171875-1.848099-3.1171875-1.646617 0-2.49284 1.2140625-2.49284 3.8789062v5.234375h-4.007506z"/><path d="m161.990716 19.3375c-1.178864.309375-2.492049.6664063-4.60721.6664063-4.140247 0-8.926815-2.2375-8.926815-8.5195313 0-5.78203125 3.783902-8.66171875 8.904692-8.66171875 1.581037 0 3.117037.38125 4.608.85703125l-.333432 3.59375c-1.336099-.78515625-2.627161-1.16640625-4.052544-1.16640625-2.937679 0-4.852148 2.284375-4.852148 5.37734375 0 3.2609375 2.160198 5.2351563 5.185581 5.2351563 1.359012 0 2.739358-.3804688 3.873975-.85625z"/><path d="m170.094933 20.0035156c3.828148 0 6.744494-2.3796875 6.744494-6.4726562 0-4.11640627-2.916346-6.49609378-6.744494-6.49609378-3.829728 0-6.745284 2.37968751-6.745284 6.49609378 0 4.0929687 2.915556 6.4726562 6.745284 6.4726562m0-2.9984375c-1.848098 0-2.605827-1.6414062-2.605827-3.4742187 0-1.8554688.757729-3.4984375 2.605827-3.4984375 1.848099 0 2.603457 1.6429687 2.603457 3.4984375 0 1.8328125-.755358 3.4742187-2.603457 3.4742187"/><path d="m178.715259 7.32039063h3.473383v2.284375h.041086c.76326-1.784375 2.287408-2.56953125 4.024099-2.56953125 1.567605 0 2.859457.7609375 3.45205 2.3796875.890469-1.66640625 2.352197-2.3796875 3.918222-2.3796875 3.176296 0 3.896889 2.02265625 3.896889 5.37812502v7.3039062h-3.810766v-6.6625c0-1.403125-.44642-2.4507812-1.526518-2.4507812-1.355852 0-2.159408 1.2140625-2.159408 3.8789062v5.234375h-3.813136v-6.6625c0-1.403125-.444049-2.4507812-1.523358-2.4507812-1.355851 0-2.160197 1.2140625-2.160197 3.8789062v5.234375h-3.812346z"/><path d="m199.970686 24.7153906h4.007507v-6.7351562h.044247c.756938 1.4765625 2.270814 2.0234375 3.671703 2.0234375 3.451259 0 5.298568-3.0460938 5.298568-6.7109375 0-2.9976563-1.758025-6.25781253-4.963555-6.25781253-1.825976 0-3.51763.78515625-4.319605 2.52265625h-.044247v-2.2375h-3.694618zm8.880988-11.3273437c0 1.975-.912593 3.3320312-2.425679 3.3320312-1.335309 0-2.447802-1.3570312-2.447802-3.1648437 0-1.85625.978172-3.2367188 2.447802-3.2367188 1.558914 0 2.425679 1.428125 2.425679 3.0695313z"/><path d="m226.081817 19.7174219c-.177777-.975-.222024-1.9507813-.222024-2.9257813v-4.6164062c0-3.78359377-2.56-5.13984377-5.520593-5.13984377-1.714568 0-3.205531.2609375-4.630914.88046875l.066371 2.90234372c1.114074-.6664062 2.405136-.92734372 3.696197-.92734372 1.445926 0 2.626371.45156252 2.649284 2.14062502-.512-.0945313-1.224691-.1664063-1.870222-.1664063-2.136494 0-5.988346.4523438-5.988346 4.2359375 0 2.6890625 2.048 3.9023438 4.340149 3.9023438 1.648197 0 2.761481-.6898438 3.674864-2.2367188h.044247c0 .6421875.06637 1.284375.089284 1.9507813zm-8.079802-3.9257813c0-1.1898437 1.069037-1.6414062 2.426469-1.6414062.601284 0 1.179654.0476562 1.691654.0710937 0 1.4507813-.958419 2.9273438-2.472296 2.9273438-.934716 0-1.645827-.5007813-1.645827-1.3570313z"/><path d="m228.419002 7.32039063h3.651951v2.284375h.044247c.800395-1.784375 2.403556-2.56953125 4.229531-2.56953125 3.161284 0 4.430222 2.3796875 4.430222 4.94921872v7.7328125h-4.008296v-5.9960937c0-2.33125-.757729-3.1171875-1.847309-3.1171875-1.646617 0-2.493629 1.2140625-2.493629 3.8789062v5.234375h-4.006717z"/><path d="m1.40049383 14.4233594c.53412345.190625 1.024.2625 1.57945679.2625.97975308 0 1.73669136-.6195313 2.02587654-1.7132813l-4.69649383-12.68359372h4.31881482l2.49204938 8.09062499h.04503704l2.38380247-8.09062499h4.00513576l-4.25165428 11.54140622c-1.13619753 3.1171875-2.00296296 6.1382813-5.67624692 6.1382813-.84622222 0-1.67032098-.0945313-2.4928395-.284375z" mask="url(#a)" transform="translate(241.777778 7.03125)"/><path d="m80.1882864 6.02265625 6.777679-2.959375-1.1354074-2.8125-6.5398518 3.48671875z"/></g></g></svg>